<svg width="20" height="21" viewBox="0 0 20 21" fill="none" xmlns="http://www.w3.org/2000/svg">
<mask id="mask0_2398_12216" style="mask-type:alpha" maskUnits="userSpaceOnUse" x="0" y="0" width="20" height="21">
<rect y="0.960449" width="20" height="20" fill="#D9D9D9"/>
</mask>
<g mask="url(#mask0_2398_12216)">
<path d="M2.49992 17.6273C2.04159 17.6273 1.64922 17.4641 1.32284 17.1377C0.996446 16.8113 0.833252 16.4189 0.833252 15.9606V5.96061C0.833252 5.50228 0.996446 5.10992 1.32284 4.78353C1.64922 4.45714 2.04159 4.29395 2.49992 4.29395H17.4999C17.9583 4.29395 18.3506 4.45714 18.677 4.78353C19.0034 5.10992 19.1666 5.50228 19.1666 5.96061V15.9606C19.1666 16.4189 19.0034 16.8113 18.677 17.1377C18.3506 17.4641 17.9583 17.6273 17.4999 17.6273H2.49992ZM2.49992 15.9606H17.4999V5.96061H2.49992V15.9606ZM3.74992 13.4606H4.99992V12.2106H6.24992V13.4606H7.49992V9.29395C7.49992 9.05783 7.42006 8.85992 7.26034 8.7002C7.10061 8.54047 6.9027 8.46061 6.66659 8.46061H4.58325C4.34714 8.46061 4.14922 8.54047 3.9895 8.7002C3.82978 8.85992 3.74992 9.05783 3.74992 9.29395V13.4606ZM4.99992 10.9606V9.71061H6.24992V10.9606H4.99992ZM9.37492 13.4606H10.6249L12.0833 8.46061H10.8333L9.99992 11.3148L9.16659 8.46061H7.91659L9.37492 13.4606ZM13.3333 13.4606H15.4166C15.6527 13.4606 15.8506 13.3808 16.0103 13.221C16.1701 13.0613 16.2499 12.8634 16.2499 12.6273V11.7939H14.9999V12.2106H13.7499V9.71061H14.9999V10.1273H16.2499V9.29395C16.2499 9.05783 16.1701 8.85992 16.0103 8.7002C15.8506 8.54047 15.6527 8.46061 15.4166 8.46061H13.3333C13.0971 8.46061 12.8992 8.54047 12.7395 8.7002C12.5798 8.85992 12.4999 9.05783 12.4999 9.29395V12.6273C12.4999 12.8634 12.5798 13.0613 12.7395 13.221C12.8992 13.3808 13.0971 13.4606 13.3333 13.4606Z" fill="#1DCA24"/>
</g>
</svg>
