<svg width="20" height="21" viewBox="0 0 20 21" fill="none" xmlns="http://www.w3.org/2000/svg">
<mask id="mask0_2398_12209" style="mask-type:alpha" maskUnits="userSpaceOnUse" x="0" y="0" width="20" height="21">
<rect y="0.960449" width="20" height="20" fill="#D9D9D9"/>
</mask>
<g mask="url(#mask0_2398_12209)">
<path d="M15.0001 18.0436L11.6667 14.7103L15.0001 11.377L16.1667 12.5436L14.8542 13.877H18.3334V15.5436H14.8542L16.1667 16.877L15.0001 18.0436ZM3.33341 17.627C2.87508 17.627 2.48272 17.4638 2.15633 17.1374C1.82994 16.811 1.66675 16.4186 1.66675 15.9603V13.4603C1.66675 13.002 1.82994 12.6096 2.15633 12.2832C2.48272 11.9568 2.87508 11.7936 3.33341 11.7936H8.33341C8.79175 11.7936 9.18411 11.9568 9.5105 12.2832C9.83689 12.6096 10.0001 13.002 10.0001 13.4603V15.9603C10.0001 16.4186 9.83689 16.811 9.5105 17.1374C9.18411 17.4638 8.79175 17.627 8.33341 17.627H3.33341ZM3.33341 15.9603H8.33341V13.4603H3.33341V15.9603ZM5.00008 10.5436L3.83341 9.37695L5.14591 8.04362H1.66675V6.37695H5.14591L3.83341 5.04362L5.00008 3.87695L8.33341 7.21029L5.00008 10.5436ZM11.6667 10.127C11.2084 10.127 10.8161 9.96376 10.4897 9.63737C10.1633 9.31098 10.0001 8.91862 10.0001 8.46029V5.96029C10.0001 5.50195 10.1633 5.10959 10.4897 4.7832C10.8161 4.45681 11.2084 4.29362 11.6667 4.29362H16.6667C17.1251 4.29362 17.5174 4.45681 17.8438 4.7832C18.1702 5.10959 18.3334 5.50195 18.3334 5.96029V8.46029C18.3334 8.91862 18.1702 9.31098 17.8438 9.63737C17.5174 9.96376 17.1251 10.127 16.6667 10.127H11.6667ZM11.6667 8.46029H16.6667V5.96029H11.6667V8.46029Z" fill="#FB29FF"/>
</g>
</svg>
