<svg width="14" height="14" viewBox="0 0 14 14" fill="none" xmlns="http://www.w3.org/2000/svg">
<mask id="mask0_7_191998" style="mask-type:alpha" maskUnits="userSpaceOnUse" x="0" y="0" width="14" height="14">
<rect x="0.695312" width="13.0102" height="13.0102" fill="#D9D9D9"/>
</mask>
<g mask="url(#mask0_7_191998)">
<path d="M8.2844 8.67356H9.36858V7.58938H10.4528V6.50519H9.36858V5.42101H8.2844V6.50519H7.20022V7.58938H8.2844V8.67356ZM2.86348 10.8419C2.56533 10.8419 2.3101 10.7358 2.09778 10.5234C1.88546 10.3111 1.7793 10.0559 1.7793 9.75774V3.25264C1.7793 2.95449 1.88546 2.69926 2.09778 2.48694C2.3101 2.27462 2.56533 2.16846 2.86348 2.16846H6.11603L7.20022 3.25264H11.537C11.8351 3.25264 12.0903 3.3588 12.3027 3.57112C12.515 3.78344 12.6211 4.03867 12.6211 4.33682V9.75774C12.6211 10.0559 12.515 10.3111 12.3027 10.5234C12.0903 10.7358 11.8351 10.8419 11.537 10.8419H2.86348ZM2.86348 9.75774H11.537V4.33682H6.75299L5.66881 3.25264H2.86348V9.75774Z" fill="#9744F0"/>
</g>
</svg>
