<svg width="20" height="21" viewBox="0 0 20 21" fill="none" xmlns="http://www.w3.org/2000/svg">
<mask id="mask0_2398_12227" style="mask-type:alpha" maskUnits="userSpaceOnUse" x="0" y="-1" width="20" height="21">
<rect y="-0.706055" width="20" height="20" fill="#D9D9D9"/>
</mask>
<g mask="url(#mask0_2398_12227)">
<path d="M10 6.81478C11.2361 6.81478 12.4792 6.63075 13.7292 6.2627C14.9792 5.89464 15.6806 5.52311 15.8333 5.14811C15.6806 4.74533 14.9826 4.36339 13.7396 4.00228C12.4965 3.64117 11.25 3.46061 10 3.46061C8.73611 3.46061 7.49653 3.6377 6.28125 3.99186C5.06597 4.34603 4.36111 4.73145 4.16667 5.14811C4.36111 5.52311 5.06597 5.89464 6.28125 6.2627C7.49653 6.63075 8.73611 6.81478 10 6.81478ZM14.5833 16.7939H15.4167V13.3773L16.9167 14.8773L17.5 14.2939L15 11.7939L12.5 14.2939L13.0833 14.8773L14.5833 13.3773V16.7939ZM15 18.4606C13.8472 18.4606 12.8646 18.0544 12.0521 17.2419C11.2396 16.4294 10.8333 15.4467 10.8333 14.2939C10.8333 13.1412 11.2396 12.1585 12.0521 11.346C12.8646 10.5335 13.8472 10.1273 15 10.1273C16.1528 10.1273 17.1354 10.5335 17.9479 11.346C18.7604 12.1585 19.1667 13.1412 19.1667 14.2939C19.1667 15.4467 18.7604 16.4294 17.9479 17.2419C17.1354 18.0544 16.1528 18.4606 15 18.4606ZM9.22917 15.1064C9.27083 15.412 9.33333 15.7037 9.41667 15.9814C9.5 16.2592 9.60417 16.5301 9.72917 16.7939C8.71528 16.7801 7.77083 16.6828 6.89583 16.5023C6.02083 16.3217 5.25694 16.0821 4.60417 15.7835C3.95139 15.4849 3.4375 15.1377 3.0625 14.7419C2.6875 14.346 2.5 13.9189 2.5 13.4606V5.12728C2.5 4.21061 3.23264 3.42589 4.69792 2.77311C6.16319 2.12033 7.93056 1.79395 10 1.79395C12.0694 1.79395 13.8368 2.12033 15.3021 2.77311C16.7674 3.42589 17.5 4.21061 17.5 5.12728V9.02311C17.2361 8.89811 16.9653 8.79395 16.6875 8.71061C16.4097 8.62728 16.125 8.56478 15.8333 8.52311V7.23145C15.1111 7.63422 14.25 7.93978 13.25 8.14811C12.25 8.35645 11.1667 8.46061 10 8.46061C8.81944 8.46061 7.72917 8.35645 6.72917 8.14811C5.72917 7.93978 4.875 7.63422 4.16667 7.23145V9.33561C4.875 9.98839 5.78125 10.4224 6.88542 10.6377C7.98958 10.853 9.02778 10.9606 10 10.9606H10.2292C10.0486 11.2106 9.89236 11.4745 9.76042 11.7523C9.62847 12.0301 9.51389 12.3217 9.41667 12.6273C8.36111 12.5717 7.38194 12.4433 6.47917 12.2419C5.57639 12.0405 4.80556 11.7592 4.16667 11.3981V13.4606C4.26389 13.6412 4.47222 13.8252 4.79167 14.0127C5.11111 14.2002 5.5 14.3669 5.95833 14.5127C6.41667 14.6585 6.92708 14.7835 7.48958 14.8877C8.05208 14.9919 8.63194 15.0648 9.22917 15.1064Z" fill="#F3DD10"/>
</g>
</svg>
