<svg width="23" height="22" viewBox="0 0 23 22" fill="none" xmlns="http://www.w3.org/2000/svg">
<mask id="mask0_2345_13107" style="mask-type:alpha" maskUnits="userSpaceOnUse" x="0" y="0" width="23" height="22">
<rect x="22.0451" y="0.379272" width="21.2414" height="21.2414" transform="rotate(90 22.0451 0.379272)" fill="#D9D9D9"/>
</mask>
<g mask="url(#mask0_2345_13107)">
<path d="M6.99928 10.9999C6.99928 9.92305 7.33486 8.98267 8.00603 8.17875C8.6772 7.37482 9.52169 6.8696 10.5395 6.66308L10.5395 2.14929L12.3096 2.14929L12.3096 6.66308C13.3274 6.8696 14.1719 7.37482 14.8431 8.17875C15.5143 8.98267 15.8499 9.92305 15.8499 10.9999C15.8499 12.0767 15.5143 13.0171 14.8431 13.821C14.1719 14.6249 13.3274 15.1301 12.3096 15.3366L12.3096 19.8504L10.5395 19.8504L10.5395 15.3366C9.52169 15.1301 8.6772 14.6249 8.00603 13.821C7.33486 13.0171 6.99928 12.0767 6.99928 10.9999ZM8.76939 10.9999C8.76939 11.7374 9.02753 12.3643 9.54382 12.8806C10.0601 13.3969 10.687 13.655 11.4246 13.655C12.1621 13.655 12.789 13.3969 13.3053 12.8806C13.8216 12.3643 14.0797 11.7374 14.0797 10.9999C14.0797 10.2623 13.8216 9.6354 13.3053 9.11912C12.789 8.60284 12.1621 8.34469 11.4246 8.34469C10.687 8.34469 10.0601 8.60284 9.54382 9.11912C9.02754 9.6354 8.76939 10.2623 8.76939 10.9999Z" fill="black"/>
</g>
</svg>
