<svg width="101" height="88" viewBox="0 0 101 88" fill="none" xmlns="http://www.w3.org/2000/svg">
<g filter="url(#filter0_d_2345_13010)">
<rect x="19" y="19" width="50" height="50" rx="8" fill="#E87B17"/>
<rect x="25.9995" y="26" width="36" height="36" rx="4" fill="#BA6314"/>
<mask id="mask0_2345_13010" style="mask-type:alpha" maskUnits="userSpaceOnUse" x="32" y="32" width="24" height="24">
<rect x="32" y="32" width="24" height="24" fill="#D9D9D9"/>
</mask>
<g mask="url(#mask0_2345_13010)">
<path d="M41 50C41.2833 50 41.5208 49.9042 41.7125 49.7125C41.9042 49.5208 42 49.2833 42 49C42 48.7167 41.9042 48.4792 41.7125 48.2875C41.5208 48.0958 41.2833 48 41 48C40.7167 48 40.4792 48.0958 40.2875 48.2875C40.0958 48.4792 40 48.7167 40 49C40 49.2833 40.0958 49.5208 40.2875 49.7125C40.4792 49.9042 40.7167 50 41 50ZM44 50C44.2833 50 44.5208 49.9042 44.7125 49.7125C44.9042 49.5208 45 49.2833 45 49C45 48.7167 44.9042 48.4792 44.7125 48.2875C44.5208 48.0958 44.2833 48 44 48C43.7167 48 43.4792 48.0958 43.2875 48.2875C43.0958 48.4792 43 48.7167 43 49C43 49.2833 43.0958 49.5208 43.2875 49.7125C43.4792 49.9042 43.7167 50 44 50ZM47 50C47.2833 50 47.5208 49.9042 47.7125 49.7125C47.9042 49.5208 48 49.2833 48 49C48 48.7167 47.9042 48.4792 47.7125 48.2875C47.5208 48.0958 47.2833 48 47 48C46.7167 48 46.4792 48.0958 46.2875 48.2875C46.0958 48.4792 46 48.7167 46 49C46 49.2833 46.0958 49.5208 46.2875 49.7125C46.4792 49.9042 46.7167 50 47 50ZM41 47C41.2833 47 41.5208 46.9042 41.7125 46.7125C41.9042 46.5208 42 46.2833 42 46C42 45.7167 41.9042 45.4792 41.7125 45.2875C41.5208 45.0958 41.2833 45 41 45C40.7167 45 40.4792 45.0958 40.2875 45.2875C40.0958 45.4792 40 45.7167 40 46C40 46.2833 40.0958 46.5208 40.2875 46.7125C40.4792 46.9042 40.7167 47 41 47ZM44 47C44.2833 47 44.5208 46.9042 44.7125 46.7125C44.9042 46.5208 45 46.2833 45 46C45 45.7167 44.9042 45.4792 44.7125 45.2875C44.5208 45.0958 44.2833 45 44 45C43.7167 45 43.4792 45.0958 43.2875 45.2875C43.0958 45.4792 43 45.7167 43 46C43 46.2833 43.0958 46.5208 43.2875 46.7125C43.4792 46.9042 43.7167 47 44 47ZM47 47C47.2833 47 47.5208 46.9042 47.7125 46.7125C47.9042 46.5208 48 46.2833 48 46C48 45.7167 47.9042 45.4792 47.7125 45.2875C47.5208 45.0958 47.2833 45 47 45C46.7167 45 46.4792 45.0958 46.2875 45.2875C46.0958 45.4792 46 45.7167 46 46C46 46.2833 46.0958 46.5208 46.2875 46.7125C46.4792 46.9042 46.7167 47 47 47ZM39 44H49V43C49 41.6167 48.5125 40.4375 47.5375 39.4625C46.5625 38.4875 45.3833 38 44 38C42.6167 38 41.4375 38.4875 40.4625 39.4625C39.4875 40.4375 39 41.6167 39 43V44ZM40.55 42.5C40.6833 41.65 41.0708 40.9375 41.7125 40.3625C42.3542 39.7875 43.1167 39.5 44 39.5C44.8833 39.5 45.6458 39.7875 46.2875 40.3625C46.9292 40.9375 47.3167 41.65 47.45 42.5H40.55ZM36 54C35.45 54 34.9792 53.8042 34.5875 53.4125C34.1958 53.0208 34 52.55 34 52V36C34 35.45 34.1958 34.9792 34.5875 34.5875C34.9792 34.1958 35.45 34 36 34H52C52.55 34 53.0208 34.1958 53.4125 34.5875C53.8042 34.9792 54 35.45 54 36V52C54 52.55 53.8042 53.0208 53.4125 53.4125C53.0208 53.8042 52.55 54 52 54H36ZM36 52H52V36H36V52Z" fill="white"/>
</g>
</g>
<defs>
<filter id="filter0_d_2345_13010" x="0.428574" y="0.428574" width="118.286" height="87.1429" filterUnits="userSpaceOnUse" color-interpolation-filters="sRGB">
<feFlood flood-opacity="0" result="BackgroundImageFix"/>
<feColorMatrix in="SourceAlpha" type="matrix" values="0 0 0 0 0 0 0 0 0 0 0 0 0 0 0 0 0 0 127 0" result="hardAlpha"/>
<feOffset/>
<feGaussianBlur stdDeviation="9.28571"/>
<feComposite in2="hardAlpha" operator="out"/>
<feColorMatrix type="matrix" values="0 0 0 0 1 0 0 0 0 0.7 0 0 0 0 0.25 0 0 0 0.5 0"/>
<feBlend mode="normal" in2="BackgroundImageFix" result="effect1_dropShadow_2345_13010"/>
<feBlend mode="normal" in="SourceGraphic" in2="effect1_dropShadow_2345_13010" result="shape"/>
</filter>
</defs>
</svg>
