<svg width="14" height="15" viewBox="0 0 14 15" fill="none" xmlns="http://www.w3.org/2000/svg">
<mask id="mask0_7_192063" style="mask-type:alpha" maskUnits="userSpaceOnUse" x="0" y="0" width="14" height="15">
<rect y="0.504883" width="14" height="14" fill="#D9D9D9"/>
</mask>
<g mask="url(#mask0_7_192063)">
<path d="M2.33317 13.3381C2.01234 13.3381 1.73768 13.2238 1.50921 12.9953C1.28074 12.7669 1.1665 12.4922 1.1665 12.1714V5.17139C1.1665 4.85055 1.28074 4.5759 1.50921 4.34743C1.73768 4.11896 2.01234 4.00472 2.33317 4.00472H4.6665V2.83805C4.6665 2.51722 4.78074 2.24257 5.00921 2.0141C5.23768 1.78562 5.51234 1.67139 5.83317 1.67139H8.1665C8.48734 1.67139 8.76199 1.78562 8.99046 2.0141C9.21894 2.24257 9.33317 2.51722 9.33317 2.83805V4.00472H11.6665C11.9873 4.00472 12.262 4.11896 12.4905 4.34743C12.7189 4.5759 12.8332 4.85055 12.8332 5.17139V12.1714C12.8332 12.4922 12.7189 12.7669 12.4905 12.9953C12.262 13.2238 11.9873 13.3381 11.6665 13.3381H2.33317ZM2.33317 12.1714H11.6665V5.17139H2.33317V12.1714ZM5.83317 4.00472H8.1665V2.83805H5.83317V4.00472ZM6.4165 9.25472V11.0047H7.58317V9.25472H9.33317V8.08805H7.58317V6.33805H6.4165V8.08805H4.6665V9.25472H6.4165Z" fill="#7E1CE8"/>
</g>
</svg>
