<svg width="20" height="21" viewBox="0 0 20 21" fill="none" xmlns="http://www.w3.org/2000/svg">
<mask id="mask0_2448_188" style="mask-type:alpha" maskUnits="userSpaceOnUse" x="0" y="0" width="20" height="21">
<rect y="0.960449" width="20" height="20" fill="#D9D9D9"/>
</mask>
<g mask="url(#mask0_2448_188)">
<path d="M4.16667 18.4604C3.70833 18.4604 3.31597 18.2973 2.98958 17.9709C2.66319 17.6445 2.5 17.2521 2.5 16.7938V5.12712C2.5 4.66878 2.66319 4.27642 2.98958 3.95003C3.31597 3.62364 3.70833 3.46045 4.16667 3.46045H15.8333C16.2917 3.46045 16.684 3.62364 17.0104 3.95003C17.3368 4.27642 17.5 4.66878 17.5 5.12712V16.7938C17.5 17.2521 17.3368 17.6445 17.0104 17.9709C16.684 18.2973 16.2917 18.4604 15.8333 18.4604H4.16667ZM4.16667 14.2938V16.7938H15.8333V14.2938H4.16667ZM4.16667 12.6271H15.8333V5.12712H4.16667V12.6271Z" fill="#1DD2EB"/>
</g>
</svg>
