<svg width="23" height="24" viewBox="0 0 23 24" fill="none" xmlns="http://www.w3.org/2000/svg">
<mask id="mask0_2345_13093" style="mask-type:alpha" maskUnits="userSpaceOnUse" x="0" y="0" width="23" height="24">
<rect x="0.334961" y="0.967773" width="22.0645" height="22.0645" fill="#D9D9D9"/>
</mask>
<g mask="url(#mask0_2345_13093)">
<path d="M2.17365 20.2742V3.72583H11.3672V7.40325H20.5607V20.2742H2.17365ZM4.01235 18.4355H9.52848V16.5968H4.01235V18.4355ZM4.01235 14.7581H9.52848V12.9194H4.01235V14.7581ZM4.01235 11.0807H9.52848V9.24196H4.01235V11.0807ZM4.01235 7.40325H9.52848V5.56454H4.01235V7.40325ZM11.3672 18.4355H18.722V9.24196H11.3672V18.4355ZM13.2059 12.9194V11.0807H16.8833V12.9194H13.2059ZM13.2059 16.5968V14.7581H16.8833V16.5968H13.2059Z" fill="black"/>
</g>
</svg>
