<svg width="20" height="21" viewBox="0 0 20 21" fill="none" xmlns="http://www.w3.org/2000/svg">
<mask id="mask0_2398_12235" style="mask-type:alpha" maskUnits="userSpaceOnUse" x="0" y="0" width="20" height="21">
<rect y="0.960449" width="20" height="20" fill="#D9D9D9"/>
</mask>
<g mask="url(#mask0_2398_12235)">
<path d="M12.5 16.7936L11.3333 15.6061L14.3125 12.627H6.25C5.20833 12.627 4.32292 12.2624 3.59375 11.5332C2.86458 10.804 2.5 9.91862 2.5 8.87695C2.5 7.83529 2.86458 6.94987 3.59375 6.2207C4.32292 5.49154 5.20833 5.12695 6.25 5.12695H6.66667V6.79362H6.25C5.66667 6.79362 5.17361 6.99501 4.77083 7.39779C4.36806 7.80056 4.16667 8.29362 4.16667 8.87695C4.16667 9.46029 4.36806 9.95334 4.77083 10.3561C5.17361 10.7589 5.66667 10.9603 6.25 10.9603H14.3125L11.3333 7.96029L12.5 6.79362L17.5 11.7936L12.5 16.7936Z" fill="#FF0E0E"/>
</g>
</svg>
