<svg width="23" height="24" viewBox="0 0 23 24" fill="none" xmlns="http://www.w3.org/2000/svg">
<mask id="mask0_2334_723" style="mask-type:alpha" maskUnits="userSpaceOnUse" x="0" y="0" width="23" height="24">
<rect width="22.5455" height="22.5455" transform="matrix(1 0 0 -1 0 23.2727)" fill="#D9D9D9"/>
</mask>
<g mask="url(#mask0_2334_723)">
<path d="M2.81818 4.48487V6.36366H4.69696V4.48487H2.81818ZM2.81818 8.24245V10.1212H7.51515V8.24245H2.81818ZM2.81818 12V13.8788H10.3333V12H2.81818ZM2.81818 15.7576V19.5152H19.7273V15.7576H2.81818ZM6.57575 4.48487V6.36366H8.45454V4.48487H6.57575ZM8.92424 8.24245V10.1212H13.6212V8.24245H8.92424ZM10.3333 4.48487V6.36366H12.2121V4.48487H10.3333ZM12.2121 12V13.8788H19.7273V12H12.2121ZM14.0909 4.48487V6.36366H15.9697V4.48487H14.0909ZM15.0303 8.24245V10.1212H19.7273V8.24245H15.0303ZM17.8485 4.48487V6.36366H19.7273V4.48487H17.8485Z" fill="black"/>
</g>
</svg>
