<svg width="101" height="88" viewBox="0 0 101 88" fill="none" xmlns="http://www.w3.org/2000/svg">
<g filter="url(#filter0_d_2345_13026)">
<rect x="19" y="19" width="50" height="50" rx="8" fill="#17E82C"/>
<rect x="25.9995" y="26" width="36" height="36" rx="4" fill="#17BA14"/>
<mask id="mask0_2345_13026" style="mask-type:alpha" maskUnits="userSpaceOnUse" x="32" y="32" width="24" height="24">
<rect x="32" y="32" width="24" height="24" fill="#D9D9D9"/>
</mask>
<g mask="url(#mask0_2345_13026)">
<path d="M44 48C45.25 48 46.3125 47.5625 47.1875 46.6875C48.0625 45.8125 48.5 44.75 48.5 43.5C48.5 42.25 48.0625 41.1875 47.1875 40.3125C46.3125 39.4375 45.25 39 44 39V40.5C44.8333 40.5 45.5417 40.7917 46.125 41.375C46.7083 41.9583 47 42.6667 47 43.5C47 44.3333 46.7083 45.0417 46.125 45.625C45.5417 46.2083 44.8333 46.5 44 46.5C43.45 46.5 42.9375 46.3583 42.4625 46.075C41.9875 45.7917 41.6167 45.4083 41.35 44.925L40.05 45.65C40.45 46.3833 41 46.9583 41.7 47.375C42.4 47.7917 43.1667 48 44 48ZM40.25 44.35C40.4667 44.35 40.6458 44.2792 40.7875 44.1375C40.9292 43.9958 41 43.8167 41 43.6C41 43.3833 40.9292 43.2042 40.7875 43.0625C40.6458 42.9208 40.4667 42.85 40.25 42.85C40.0333 42.85 39.8542 42.9208 39.7125 43.0625C39.5708 43.2042 39.5 43.3833 39.5 43.6C39.5 43.8167 39.5708 43.9958 39.7125 44.1375C39.8542 44.2792 40.0333 44.35 40.25 44.35ZM40.8 42.25C41.0167 42.25 41.1958 42.1792 41.3375 42.0375C41.4792 41.8958 41.55 41.7167 41.55 41.5C41.55 41.2833 41.4792 41.1042 41.3375 40.9625C41.1958 40.8208 41.0167 40.75 40.8 40.75C40.5833 40.75 40.4042 40.8208 40.2625 40.9625C40.1208 41.1042 40.05 41.2833 40.05 41.5C40.05 41.7167 40.1208 41.8958 40.2625 42.0375C40.4042 42.1792 40.5833 42.25 40.8 42.25ZM42.25 40.875C42.4667 40.875 42.6458 40.8042 42.7875 40.6625C42.9292 40.5208 43 40.3417 43 40.125C43 39.9083 42.9292 39.7292 42.7875 39.5875C42.6458 39.4458 42.4667 39.375 42.25 39.375C42.0333 39.375 41.8542 39.4458 41.7125 39.5875C41.5708 39.7292 41.5 39.9083 41.5 40.125C41.5 40.3417 41.5708 40.5208 41.7125 40.6625C41.8542 40.8042 42.0333 40.875 42.25 40.875ZM44 54C41.6833 53.4167 39.7708 52.0875 38.2625 50.0125C36.7542 47.9375 36 45.6333 36 43.1V37L44 34L52 37V43.1C52 45.6333 51.2458 47.9375 49.7375 50.0125C48.2292 52.0875 46.3167 53.4167 44 54ZM44 51.9C45.7333 51.35 47.1667 50.25 48.3 48.6C49.4333 46.95 50 45.1167 50 43.1V38.375L44 36.125L38 38.375V43.1C38 45.1167 38.5667 46.95 39.7 48.6C40.8333 50.25 42.2667 51.35 44 51.9Z" fill="white"/>
</g>
</g>
<defs>
<filter id="filter0_d_2345_13026" x="0.428574" y="0.428574" width="118.286" height="87.1429" filterUnits="userSpaceOnUse" color-interpolation-filters="sRGB">
<feFlood flood-opacity="0" result="BackgroundImageFix"/>
<feColorMatrix in="SourceAlpha" type="matrix" values="0 0 0 0 0 0 0 0 0 0 0 0 0 0 0 0 0 0 127 0" result="hardAlpha"/>
<feOffset/>
<feGaussianBlur stdDeviation="9.28571"/>
<feComposite in2="hardAlpha" operator="out"/>
<feColorMatrix type="matrix" values="0 0 0 0 0.25 0 0 0 0 1 0 0 0 0 0.37 0 0 0 0.5 0"/>
<feBlend mode="normal" in2="BackgroundImageFix" result="effect1_dropShadow_2345_13026"/>
<feBlend mode="normal" in="SourceGraphic" in2="effect1_dropShadow_2345_13026" result="shape"/>
</filter>
</defs>
</svg>
