<svg width="22" height="22" viewBox="0 0 22 22" fill="none" xmlns="http://www.w3.org/2000/svg">
<mask id="mask0_2345_13098" style="mask-type:alpha" maskUnits="userSpaceOnUse" x="0" y="0" width="22" height="22">
<rect x="0.754883" y="0.481445" width="21.037" height="21.037" fill="#D9D9D9"/>
</mask>
<g mask="url(#mask0_2345_13098)">
<path d="M0.754883 16.2592V14.8787C0.754883 14.2505 1.07628 13.7392 1.71908 13.3447C2.36188 12.9503 3.2092 12.7531 4.26106 12.7531C4.45097 12.7531 4.63359 12.7567 4.8089 12.764C4.9842 12.7713 5.15221 12.7896 5.31291 12.8188C5.10838 13.1256 4.95499 13.447 4.85272 13.783C4.75046 14.119 4.69933 14.4696 4.69933 14.8349V16.2592H0.754883ZM6.01414 16.2592V14.8349C6.01414 14.3674 6.14197 13.9401 6.39763 13.5529C6.65329 13.1658 7.01486 12.8261 7.48235 12.5339C7.94984 12.2418 8.50864 12.0226 9.15874 11.8765C9.80884 11.7304 10.5137 11.6574 11.2734 11.6574C12.0477 11.6574 12.7599 11.7304 13.41 11.8765C14.0601 12.0226 14.6189 12.2418 15.0864 12.5339C15.5539 12.8261 15.9118 13.1658 16.1601 13.5529C16.4085 13.9401 16.5327 14.3674 16.5327 14.8349V16.2592H6.01414ZM17.8475 16.2592V14.8349C17.8475 14.455 17.8 14.0971 17.705 13.7611C17.6101 13.4251 17.4676 13.111 17.2777 12.8188C17.4384 12.7896 17.6028 12.7713 17.7708 12.764C17.9388 12.7567 18.1104 12.7531 18.2857 12.7531C19.3376 12.7531 20.1849 12.9466 20.8277 13.3338C21.4705 13.7209 21.7919 14.2359 21.7919 14.8787V16.2592H17.8475ZM7.8768 14.5062H14.6919C14.5458 14.214 14.1404 13.9583 13.4757 13.7392C12.811 13.52 12.0769 13.4105 11.2734 13.4105C10.4699 13.4105 9.7358 13.52 9.07109 13.7392C8.40637 13.9583 8.00828 14.214 7.8768 14.5062ZM4.26106 11.8765C3.77896 11.8765 3.36625 11.7049 3.02294 11.3616C2.67963 11.0182 2.50797 10.6055 2.50797 10.1234C2.50797 9.62673 2.67963 9.21037 3.02294 8.87436C3.36625 8.53836 3.77896 8.37035 4.26106 8.37035C4.75776 8.37035 5.17412 8.53836 5.51013 8.87436C5.84614 9.21037 6.01414 9.62673 6.01414 10.1234C6.01414 10.6055 5.84614 11.0182 5.51013 11.3616C5.17412 11.7049 4.75776 11.8765 4.26106 11.8765ZM18.2857 11.8765C17.8036 11.8765 17.3909 11.7049 17.0476 11.3616C16.7043 11.0182 16.5327 10.6055 16.5327 10.1234C16.5327 9.62673 16.7043 9.21037 17.0476 8.87436C17.3909 8.53836 17.8036 8.37035 18.2857 8.37035C18.7825 8.37035 19.1988 8.53836 19.5348 8.87436C19.8708 9.21037 20.0388 9.62673 20.0388 10.1234C20.0388 10.6055 19.8708 11.0182 19.5348 11.3616C19.1988 11.7049 18.7825 11.8765 18.2857 11.8765ZM11.2734 11C10.5429 11 9.92206 10.7443 9.41075 10.233C8.89943 9.72169 8.64377 9.10081 8.64377 8.37035C8.64377 7.62529 8.89943 7.00075 9.41075 6.49674C9.92206 5.99273 10.5429 5.74072 11.2734 5.74072C12.0185 5.74072 12.643 5.99273 13.147 6.49674C13.651 7.00075 13.903 7.62529 13.903 8.37035C13.903 9.10081 13.651 9.72169 13.147 10.233C12.643 10.7443 12.0185 11 11.2734 11ZM11.2734 9.2469C11.5218 9.2469 11.7299 9.16289 11.8979 8.99489C12.0659 8.82689 12.1499 8.61871 12.1499 8.37035C12.1499 8.122 12.0659 7.91382 11.8979 7.74582C11.7299 7.57781 11.5218 7.49381 11.2734 7.49381C11.025 7.49381 10.8169 7.57781 10.6489 7.74582C10.4809 7.91382 10.3969 8.122 10.3969 8.37035C10.3969 8.61871 10.4809 8.82689 10.6489 8.99489C10.8169 9.16289 11.025 9.2469 11.2734 9.2469Z" fill="black"/>
</g>
</svg>
